<svg width="12" height="17" viewBox="0 0 12 17" fill="none" xmlns="http://www.w3.org/2000/svg">
<path d="M6 0C2.68286 0 0 2.6605 0 5.95C0 10.4125 6 17 6 17C6 17 12 10.4125 12 5.95C12 2.6605 9.31714 0 6 0ZM6 8.075C4.81714 8.075 3.85714 7.123 3.85714 5.95C3.85714 4.777 4.81714 3.825 6 3.825C7.18286 3.825 8.14286 4.777 8.14286 5.95C8.14286 7.123 7.18286 8.075 6 8.075Z" fill="white"/>
<path d="M6 16.6235C5.97864 16.5991 5.95558 16.5727 5.93091 16.5443C5.76826 16.357 5.53548 16.0842 5.25597 15.7426C4.69671 15.0593 3.95145 14.1024 3.2067 13.0078C2.46145 11.9125 1.71985 10.6837 1.16533 9.45625C0.609311 8.22548 0.25 7.01462 0.25 5.95C0.25 2.80054 2.81895 0.25 6 0.25C9.18105 0.25 11.75 2.80054 11.75 5.95C11.75 7.01462 11.3907 8.22548 10.8347 9.45625C10.2802 10.6837 9.53855 11.9125 8.7933 13.0078C8.04855 14.1024 7.30329 15.0593 6.74403 15.7426C6.46452 16.0842 6.23174 16.357 6.06909 16.5443C6.04442 16.5727 6.02136 16.5991 6 16.6235ZM3.60714 5.95C3.60714 7.26304 4.68105 8.325 6 8.325C7.31895 8.325 8.39286 7.26304 8.39286 5.95C8.39286 4.63696 7.31895 3.575 6 3.575C4.68105 3.575 3.60714 4.63696 3.60714 5.95Z" stroke="black" stroke-opacity="0.75" stroke-width="0.5"/>
</svg>
